<svg xmlns="http://www.w3.org/2000/svg" width="27" height="27" shape-rendering="geometricPrecision"
    text-rendering="geometricPrecision" image-rendering="optimizeQuality" fill-rule="evenodd" clip-rule="evenodd">
    <path
        d="M1.16 2.05a1 1 0 010-2h3.05a1 1 0 011 .86l1.3 5.74h19.33a1 1 0 01.93 1.37l-3.49 10.15a1 1 0 01-.94.68H9.3l.39 1.7h10.6c.89 0 1.69.36 2.26.93l.07.07a3.19 3.19 0 01-.07 4.46 3.2 3.2 0 01-5.23-3.46h-5.46a3.2 3.2 0 01-.7 3.46l-.07.06a3.19 3.19 0 01-4.46-.06 3.2 3.2 0 011.06-5.23L4.76 7.99a1.03 1.03 0 01-.05-.24l-1.3-5.7H1.17zm5.8 6.6l1.88 8.2h12.79l2.8-8.2H6.97zM21.14 22.9a1.2 1.2 0 00-1.7 0 1.2 1.2 0 000 1.7c.22.21.52.35.85.35a1.2 1.2 0 001.2-1.2c0-.32-.12-.6-.3-.81l-.05-.04zm-11.4 0a1.2 1.2 0 00-1.7 0 1.2 1.2 0 00-.35.85 1.2 1.2 0 001.2 1.2c.32 0 .6-.12.81-.31l.04-.04a1.2 1.2 0 000-1.7z"
        fill-rule="nonzero" /></svg> 