<svg xmlns="http://www.w3.org/2000/svg" viewBox="0 0 22 8">
  <defs/>
  <path fill="#212121" d="M15.971.387a2.2 2.2 0 00-.514.05.858.858 0 00-.32.14.491.491 0 00-.16.217.832.832 0 00-.044.277v1.137a.86.86 0 00.044.28.494.494 0 00.16.214.896.896 0 00.32.137 2.2 2.2 0 00.514.05c.207 0 .377-.017.51-.05a.858.858 0 00.317-.137.462.462 0 00.16-.214.805.805 0 00.047-.28V1.071a.778.778 0 00-.046-.277.46.46 0 00-.16-.217.823.823 0 00-.317-.14 2.158 2.158 0 00-.51-.05zM8.808.422a2.2 2.2 0 00-.514.05.858.858 0 00-.32.14.491.491 0 00-.16.217.832.832 0 00-.044.277v1.137a.86.86 0 00.043.28.494.494 0 00.16.214.896.896 0 00.321.137 2.2 2.2 0 00.514.05c.207 0 .377-.017.51-.05a.858.858 0 00.317-.137.462.462 0 00.16-.214.804.804 0 00.047-.28V1.106a.778.778 0 00-.047-.277.46.46 0 00-.16-.217.823.823 0 00-.317-.14 2.158 2.158 0 00-.51-.05zm2.486.015c-.215 0-.385.05-.507.153-.122.1-.184.245-.184.434v.35c0 .187.047.32.14.4.096.08.222.132.378.154l.5.07c.029.002.05.012.064.03.015.018.023.046.023.083a.11.11 0 01-.023.07c-.014.018-.035.027-.064.027h-.897c-.042 0-.074.01-.094.03-.017.018-.027.048-.027.09v.39c0 .043.01.074.027.094.02.018.052.027.094.027h1.054c.214 0 .381-.05.503-.15a.533.533 0 00.187-.437v-.35c0-.188-.048-.321-.143-.401a.735.735 0 00-.377-.154l-.497-.066a.088.088 0 01-.067-.034.116.116 0 01-.023-.073c0-.029.008-.052.023-.07a.08.08 0 01.067-.03h.777c.042 0 .072-.01.09-.027.02-.02.03-.05.03-.093V.557c0-.042-.01-.073-.03-.09-.018-.02-.048-.03-.09-.03h-.934zm1.488 0c-.042 0-.073.01-.093.03-.018.017-.027.048-.027.09v.404c0 .042.009.073.027.093.02.017.05.027.093.027h.49v1.638c0 .042.01.073.027.093.02.018.051.027.093.027h.541c.042 0 .072-.01.09-.027.02-.02.03-.051.03-.093V1.08h.49c.043 0 .072-.01.09-.027.02-.02.03-.051.03-.093V.557c0-.042-.01-.073-.03-.09-.018-.02-.047-.03-.09-.03h-1.76zm4.767 0c-.042 0-.074.01-.094.03-.018.017-.026.048-.026.09V2.72c0 .042.008.073.026.093.02.018.052.027.094.027h.513c.043 0 .073-.01.09-.027.02-.02.03-.051.03-.093v-.655h.468c.046 0 .079.013.097.037.02.022.03.058.03.107v.51c0 .043.008.074.026.094.02.018.051.027.094.027h.517c.042 0 .072-.01.09-.027.02-.02.03-.051.03-.093V2.01a.486.486 0 00-.113-.337.433.433 0 00-.29-.146.254.254 0 00.143-.14.603.603 0 00.043-.24V.993a.562.562 0 00-.143-.4c-.094-.105-.265-.157-.514-.157h-1.111zm2.478 0c-.042 0-.073.01-.093.03-.018.017-.027.048-.027.09V2.72c0 .042.01.073.027.093.02.018.05.027.093.027h1.548c.043 0 .073-.01.09-.027.02-.02.03-.051.03-.093v-.391c0-.042-.01-.072-.03-.09-.017-.02-.047-.03-.09-.03h-.92v-.287h.65c.042 0 .072-.009.09-.027.02-.02.03-.05.03-.093v-.357c0-.042-.01-.072-.03-.09-.018-.02-.048-.03-.09-.03h-.65v-.257h.92c.043 0 .073-.008.09-.026.02-.02.03-.052.03-.094v-.39c0-.042-.01-.073-.03-.09-.017-.02-.047-.03-.09-.03h-1.548zM.425.472C.383.472.35.482.33.502.313.52.304.55.304.592v2.162c0 .042.01.073.027.093.02.018.052.027.094.027h1.124c.278 0 .484-.056.617-.167.136-.111.203-.283.203-.514v-1.04c0-.232-.067-.403-.203-.514-.133-.111-.34-.167-.617-.167H.425zm2.488 0c-.042 0-.073.01-.093.03-.018.018-.027.048-.027.09v2.162c0 .042.01.073.027.093.02.018.05.027.093.027h1.548c.042 0 .072-.01.09-.027.02-.02.03-.05.03-.093v-.39c0-.043-.01-.073-.03-.09-.018-.02-.048-.03-.09-.03h-.92v-.288h.65c.042 0 .072-.009.09-.026.02-.02.03-.052.03-.094V1.48c0-.042-.01-.072-.03-.09-.018-.02-.048-.03-.09-.03h-.65v-.257h.92c.042 0 .072-.008.09-.026.02-.02.03-.051.03-.094v-.39c0-.042-.01-.072-.03-.09-.018-.02-.048-.03-.09-.03H2.913zm2.182 0c-.042 0-.074.01-.094.03-.018.018-.026.048-.026.09v2.162c0 .042.008.073.026.093.02.018.052.027.094.027h.497c.042 0 .072-.01.09-.027.02-.02.03-.05.03-.093V1.579l.197.364c.02.038.043.065.07.083a.222.222 0 00.106.024h.134a.203.203 0 00.104-.024.209.209 0 00.073-.083l.197-.364v1.175c0 .042.008.073.026.093.02.018.052.027.094.027h.513c.043 0 .073-.01.09-.027.02-.02.03-.05.03-.093V.592c0-.042-.01-.072-.03-.09-.017-.02-.047-.03-.09-.03h-.54a.164.164 0 00-.09.023.23.23 0 00-.064.077l-.296.544a.203.203 0 01-.03.043c-.007.009-.017.014-.03.014h-.03a.046.046 0 01-.034-.014.407.407 0 01-.027-.043l-.3-.544A.211.211 0 005.72.495a.147.147 0 00-.087-.023h-.537zm10.876.565c.12 0 .197.016.23.047.033.029.05.064.05.107v.897a.15.15 0 01-.05.113c-.033.03-.11.044-.23.044-.12 0-.197-.015-.23-.044a.15.15 0 01-.05-.113V1.19c0-.043.016-.078.05-.107.033-.031.11-.047.23-.047zm2.212 0h.25c.058 0 .097.016.117.047.02.029.03.065.03.11v.113c0 .045-.01.082-.03.114-.02.028-.06.043-.117.043h-.25v-.427zm-9.375.035c.12 0 .196.016.23.047.033.029.05.065.05.107v.897a.149.149 0 01-.05.114c-.034.028-.11.043-.23.043-.12 0-.197-.015-.23-.043a.149.149 0 01-.05-.114v-.897c0-.042.016-.078.05-.107.033-.031.11-.047.23-.047zm-7.746.037h.397c.053 0 .092.014.117.04.026.025.04.065.04.12v.811c0 .056-.014.096-.04.123-.025.027-.064.04-.117.04h-.397V1.11zm10.13 3.579a.082.082 0 00-.066.032v.002a.089.089 0 00-.008.014l-.955 1.682a.08.08 0 00.08.124v.001l.62-.12a.08.08 0 01.049-.017.08.08 0 01.067.127l.001.001-.266.963h-.001a.081.081 0 00.073.116c.03 0 .057-.016.07-.041h.001l1.03-1.745.002-.003a.082.082 0 00-.07-.124.078.078 0 00-.023.005v-.001l-.638.13-.04.009a.082.082 0 01-.08-.082c0-.01.002-.019.005-.028.09-.298.15-.62.22-.928a.082.082 0 00.01-.036.08.08 0 00-.08-.081h-.001zM7.103 5.715a.33.33 0 00-.175.062l.045.09a3.163 3.163 0 00-.054.361.16.16 0 00.024.096c.016.02.041.031.075.031a.172.172 0 00.09-.025.88.88 0 01.078.013.433.433 0 00.08.011.094.094 0 00.08-.04.144.144 0 00.03-.089.137.137 0 00-.004-.041.656.656 0 01-.13.033h-.139a.59.59 0 01.01-.101.303.303 0 00.066.007.097.097 0 00.06-.019.062.062 0 00.026-.052.188.188 0 00-.004-.048.763.763 0 01-.076.02.3.3 0 01-.054-.006l.024-.125c.03.013.062.02.095.02a.186.186 0 00.116-.035c.031-.023.046-.058.046-.104a.234.234 0 00-.006-.055 1.011 1.011 0 01-.24.043c-.008-.031-.03-.047-.063-.047zm.645 0a.4.4 0 00-.182.048.203.203 0 00-.079.07.182.182 0 00.043.247c.05.039.122.065.216.077-.016.039-.055.058-.115.058a.195.195 0 01-.101-.03.166.166 0 01-.068-.07.177.177 0 00-.037.109c0 .04.018.07.055.094.036.024.098.036.185.036a.37.37 0 00.207-.051.156.156 0 00.077-.136.166.166 0 00-.072-.14.698.698 0 00-.242-.095.09.09 0 01.035-.054.1.1 0 01.06-.021.12.12 0 00.05.06.15.15 0 00.08.023c.029 0 .055-.01.077-.03.024-.02.036-.048.036-.086 0-.038-.02-.065-.057-.082a.413.413 0 00-.168-.027zm.365.01a.118.118 0 00-.085.034c-.024.023-.036.058-.036.104 0 .022.002.04.007.055.044-.01.098-.02.162-.029-.033.183-.05.296-.05.339a.16.16 0 00.024.096c.016.02.043.031.08.031a.176.176 0 00.106-.039.235.235 0 01-.026-.123c0-.019.016-.111.047-.275l.041.002c.04 0 .074-.012.1-.035.027-.023.04-.058.04-.104a.191.191 0 00-.006-.055c-.044.013-.09.024-.138.033a.808.808 0 01-.13-.018.741.741 0 00-.136-.017zm5.406.012c-.084 0-.147.016-.188.048-.04.031-.062.069-.062.111 0 .022.007.04.02.056a.087.087 0 00.058.026.226.226 0 01.025-.054c.02-.031.047-.047.08-.047.02 0 .037.006.049.018.012.012.019.03.019.052s-.012.048-.036.078a.8.8 0 01-.108.107.172.172 0 00-.038-.004.135.135 0 00-.101.038.116.116 0 00-.036.083c0 .03.007.053.022.072.016.019.04.028.071.028a.175.175 0 00.104-.043c.047.017.086.029.117.036a.41.41 0 00.101.012.134.134 0 00.093-.034c.025-.023.038-.058.038-.105a.307.307 0 00-.01-.071l-.1.038a.758.758 0 01-.114-.012c.135-.105.202-.196.202-.271a.15.15 0 00-.052-.113c-.034-.033-.085-.049-.154-.049zm.665 0c-.1 0-.182.032-.244.095a.34.34 0 00-.094.25c0 .082.022.147.065.197.045.05.107.075.187.075s.15-.032.21-.097a.35.35 0 00.09-.248.287.287 0 00-.034-.144.15.15 0 00-.1-.075c-.002-.021-.006-.035-.011-.04a.158.158 0 00-.07-.013zm.589 0c-.084 0-.147.016-.188.048-.041.031-.061.069-.061.111 0 .022.006.04.019.056a.087.087 0 00.058.026.226.226 0 01.025-.054c.02-.031.047-.047.08-.047.021 0 .037.006.05.018.012.012.018.03.018.052s-.012.048-.036.078a.81.81 0 01-.108.107.172.172 0 00-.039-.004.134.134 0 00-.1.038.116.116 0 00-.037.083c0 .03.008.053.024.072.015.019.038.028.07.028a.175.175 0 00.104-.043c.047.017.086.029.117.036a.41.41 0 00.1.012.135.135 0 00.094-.034c.025-.023.038-.058.038-.105a.307.307 0 00-.01-.071l-.099.038a.764.764 0 01-.115-.012c.134-.105.202-.196.202-.271a.15.15 0 00-.052-.113c-.034-.033-.086-.049-.154-.049zm.63 0a.178.178 0 00-.076.02l-.104.047a.611.611 0 01-.13.041c.006.046.022.079.05.1a.158.158 0 00.099.033 1.57 1.57 0 00-.036.231c0 .097.035.145.106.145.034 0 .07-.01.109-.031a.207.207 0 01-.025-.107c0-.044.01-.116.033-.217.022-.101.034-.166.034-.194 0-.046-.02-.068-.06-.068zm-1.281.15c.068 0 .102.04.102.122a.315.315 0 01-.038.155c-.025.046-.053.07-.083.07a.075.075 0 01-.068-.039.204.204 0 01-.022-.1c0-.077.023-.144.069-.204a.238.238 0 01.04-.005zm-5.487.27a.1.1 0 00-.073.032.103.103 0 00-.032.073.09.09 0 00.026.066c.017.017.04.026.068.026a.1.1 0 00.073-.032.101.101 0 00.032-.073.088.088 0 00-.027-.066.09.09 0 00-.067-.026z"/>
</svg>